<svg width="69" height="69" viewBox="0 0 69 69" fill="none" xmlns="http://www.w3.org/2000/svg">
<path fill-rule="evenodd" clip-rule="evenodd" d="M34.5 2.15625C16.233 2.15625 1.4375 16.9517 1.4375 35.2187C1.4375 49.8489 10.9016 62.206 24.044 66.5868C25.6971 66.8761 26.317 65.8842 26.317 65.0163C26.317 64.2311 26.2757 61.6274 26.2757 58.8584C17.9688 60.3876 15.8197 56.8334 15.1584 54.9736C14.7865 54.023 13.1747 51.0887 11.7695 50.3035C10.6123 49.6836 8.95922 48.1544 11.7282 48.1131C14.3319 48.0718 16.1916 50.5101 16.8116 51.502C19.7872 56.5027 24.5399 55.0976 26.441 54.2297C26.7303 52.0806 27.5982 50.6341 28.5488 49.8076C21.1923 48.981 13.5053 46.1294 13.5053 33.483C13.5053 29.8874 14.7865 26.9118 16.8942 24.5974C16.5636 23.7709 15.4064 20.382 17.2248 15.8359C17.2248 15.8359 19.9938 14.968 26.317 19.2248C28.962 18.4809 31.7723 18.1089 34.5827 18.1089C37.393 18.1089 40.2033 18.4809 42.8483 19.2248C49.1715 14.9266 51.9405 15.8359 51.9405 15.8359C53.7589 20.382 52.6017 23.7709 52.2711 24.5974C54.3788 26.9118 55.66 29.8461 55.66 33.483C55.66 46.1707 47.9316 48.981 40.5752 49.8076C41.7738 50.8408 42.807 52.8245 42.807 55.9241C42.807 60.3462 42.7656 63.9005 42.7656 65.0163C42.7656 65.8842 43.3855 66.9174 45.0387 66.5868C58.0984 62.206 67.5625 49.8076 67.5625 35.2187C67.5625 16.9517 52.767 2.15625 34.5 2.15625V2.15625Z" fill="#EDD502"/>
</svg>
